# xmcd
#
# Track frame offsets:
#   225
#   12629
#   28344
#   41801
#   66989
#   80539
#   91192
#   101322
#   110560
#   129736
#   149267
#   180019
#   192220
#   200704
#   227330
#   241124
#   251876
#   264179
#   276981
#   290680
#
# Disc length: 4084 seconds
#
# Revision: 0
# Processed by: cddbd v1.4PL0 Copyright (c) Steve Scherf et al.
# Submitted via: uFREEDB 1.6.0
#
DISCID=220ff114
DTITLE=Black Music Vol. 2 - Greatest Songs performed by black artists
DYEAR=2000
DGENRE=Blues
TTITLE0=Esther Phillips/Feel Live I want to Cry
TTITLE1=Andrea True Connection/More, More, More
TTITLE2=Billy Preston/ Slippin' and Slidin'
TTITLE3=Bazuka/Love Explosion
TTITLE4=Freda Payne/I Get High
TTITLE5=The Imperials/Go and get you broken heart
TTITLE6=The Dovells/Bristol twistin' annie
TTITLE7=Little anthony and The Imperials/A short Prayer
TTITLE8=Peaches and Herb/This time next year
TTITLE9=Gloria Gaynor/Love Is just A Heartbeat away
TTITLE10=Vicki Sue Robinson/Night Time Fantasy
TTITLE11=The Charts/You´re The Reason(I´m in Love)
TTITLE12=Randy and The Rainbows/Denise
TTITLE13=Newcleus/50 ways to get funky
TTITLE14=Rare earth/Warm Ride
TTITLE15=The chi-lites/I Found sunshine
TTITLE16=Undisputed Truth/Law of the land
TTITLE17=Aaron Neville/Let´s live
TTITLE18=Luther Ingram/Do you think there´s a chance
TTITLE19=Al Jarreau/ Use Me (Till you use me up)
EXTD=
EXTT0=
EXTT1=
EXTT2=
EXTT3=
EXTT4=
EXTT5=
EXTT6=
EXTT7=
EXTT8=
EXTT9=
EXTT10=
EXTT11=
EXTT12=
EXTT13=
EXTT14=
EXTT15=
EXTT16=
EXTT17=
EXTT18=
EXTT19=
PLAYORDER=
